<?xml version="1.0" encoding="utf-8"?>
<!-- Generator: Avocode 2.6.0 - http://avocode.com -->
<svg height="80" width="80" xmlns:xlink="http://www.w3.org/1999/xlink" xmlns="http://www.w3.org/2000/svg" viewBox="0 0 80 80">
    <path fill="#ffffff" fill-rule="evenodd" d="M 77.29 40 C 77.29 19.44 60.56 2.71 40 2.71 C 19.44 2.71 2.71 19.44 2.71 40 C 2.71 60.56 19.44 77.29 40 77.29 C 60.56 77.29 77.29 60.56 77.29 40 M 80 40 C 80 62.06 62.06 80 40 80 C 17.94 80 0 62.06 0 40 C 0 17.95 17.94 0 40 0 C 62.06 0 80 17.94 80 40 M 58.2 40 C 58.2 40.75 57.6 41.36 56.85 41.36 L 41.36 41.36 L 41.36 56.84 C 41.36 57.59 40.75 58.2 40 58.2 C 39.25 58.2 38.65 57.59 38.65 56.84 L 38.65 41.36 L 23.16 41.36 C 22.41 41.36 21.8 40.75 21.8 40 C 21.8 39.25 22.41 38.64 23.16 38.64 L 38.65 38.64 L 38.65 23.16 C 38.65 22.41 39.25 21.8 40 21.8 C 40.75 21.8 41.36 22.41 41.36 23.16 L 41.36 38.64 L 56.85 38.64 C 57.59 38.64 58.2 39.25 58.2 40" />
</svg>