<svg id="SvgjsSvg1000" xmlns="http://www.w3.org/2000/svg" version="1.1" xmlns:xlink="http://www.w3.org/1999/xlink" xmlns:svgjs="http://svgjs.com/svgjs" width="14" height="14"><defs id="SvgjsDefs1001"></defs><path id="SvgjsPath1007" d="M380.03 616.6C379.30999999999995 617.32 378.13 617.32 377.4 616.6C376.67999999999995 615.87 376.67999999999995 614.7 377.4 613.97L380.03 611.34C380.75 610.62 381.92999999999995 610.62 382.65999999999997 611.34C382.88 611.57 383.03 611.84 383.11999999999995 612.13C383.17999999999995 612.09 383.25999999999993 612.06 383.30999999999995 612L384.53 610.78C384.38 610.51 384.2 610.26 383.96999999999997 610.03C382.52 608.5799999999999 380.16999999999996 608.5799999999999 378.71999999999997 610.03L376.09 612.66C374.64 614.11 374.64 616.4599999999999 376.09 617.91C377.53999999999996 619.36 379.89 619.36 381.34 617.91L383.33 615.92C382.53999999999996 616.04 381.71999999999997 615.9599999999999 380.96 615.66ZM385.28 613.97C383.83 615.4200000000001 381.47999999999996 615.4200000000001 380.03 613.97C379.79999999999995 613.74 379.61999999999995 613.49 379.46999999999997 613.22L380.69 612C380.74 611.94 380.82 611.91 380.88 611.87C380.96999999999997 612.16 381.12 612.43 381.34 612.66C382.07 613.38 383.25 613.38 383.96999999999997 612.66L386.59999999999997 610.03C387.32 609.3 387.32 608.13 386.59999999999997 607.4C385.86999999999995 606.68 384.7 606.68 383.96999999999997 607.4L383.03999999999996 608.34C382.28 608.0400000000001 381.46 607.96 380.66999999999996 608.08L382.65999999999997 606.09C384.10999999999996 604.64 386.46 604.64 387.90999999999997 606.09C389.35999999999996 607.5400000000001 389.35999999999996 609.89 387.90999999999997 611.34Z " fill="#4a90e2" fill-opacity="1" transform="matrix(1,0,0,1,-375,-605)"></path></svg>