<svg id="SvgjsSvg1011" xmlns="http://www.w3.org/2000/svg" version="1.1" xmlns:xlink="http://www.w3.org/1999/xlink" xmlns:svgjs="http://svgjs.com/svgjs" width="20" height="22"><defs id="SvgjsDefs1012"></defs><path id="SvgjsPath1013" d="M407.62 959.86L417.62 959.86L417.62 964.28C417.62 964.52 417.81 964.7099999999999 418.05 964.7099999999999L421.86 964.7099999999999L421.86 966.8699999999999L407.62 966.8699999999999ZM407.62 975.75L421.86 975.75L421.86 979.9L407.62 979.9ZM415.04 974.11C413.26000000000005 974.11 412.22 972.77 412.22 971.0600000000001C412.22 969.2700000000001 413.37 967.9300000000001 415.14000000000004 967.9300000000001C416.97 967.9300000000001 417.98 969.3100000000001 417.98 970.96C417.98 972.9200000000001 416.79 974.11 415.04 974.11ZM406.32 968.11C406.82 968.03 407.46999999999997 967.98 408.15 967.98C409.28999999999996 967.98 410.02 968.19 410.59999999999997 968.62C411.21999999999997 969.09 411.60999999999996 969.82 411.60999999999996 970.88C411.60999999999996 972.02 411.19999999999993 972.81 410.61999999999995 973.3C409.98999999999995 973.8199999999999 409.03 974.0699999999999 407.85999999999996 974.0699999999999C407.15999999999997 974.0699999999999 406.65999999999997 974.03 406.31999999999994 973.9799999999999ZM423.05 972.79L423.26 973.8399999999999C423.01 973.9699999999999 422.45 974.0999999999999 421.71999999999997 974.0999999999999C419.65 974.0999999999999 418.59 972.81 418.59 971.1099999999999C418.59 969.0699999999999 420.03999999999996 967.93 421.84999999999997 967.93C422.54999999999995 967.93 423.09 968.0699999999999 423.33 968.1999999999999L423.05 969.27C422.78000000000003 969.16 422.40000000000003 969.05 421.92 969.05C420.84000000000003 969.05 420.01 969.6999999999999 420.01 971.03C420.01 972.23 420.71999999999997 972.98 421.92 972.98C422.33000000000004 972.98 422.79 972.89 423.05 972.79ZM415.11 973.03C416.02000000000004 973.03 416.55 972.16 416.55 971C416.55 969.93 416.03000000000003 969.01 415.1 969.01C414.19 969.01 413.65000000000003 969.88 413.65000000000003 971.04C413.65000000000003 972.2099999999999 414.20000000000005 973.03 415.11 973.03ZM408.29 969.02C407.99 969.02 407.8 969.05 407.68 969.0799999999999L407.68 972.9899999999999C407.8 973.0199999999999 407.98 973.0199999999999 408.15000000000003 973.0199999999999C409.38000000000005 973.0299999999999 410.17 972.3499999999999 410.17 970.9199999999998C410.18 969.6799999999998 409.46000000000004 969.0199999999999 408.29 969.0199999999999ZM422.72 966.87C422.72 966.85 422.72 964.29 422.72 964.27C422.72 964.17 422.68 964.0699999999999 422.62 963.99L418.37 959.15C418.37 959.15 418.37 959.15 418.37 959.14C418.35 959.12 418.32 959.09 418.28000000000003 959.0699999999999C418.27000000000004 959.0699999999999 418.27000000000004 959.06 418.26000000000005 959.06C418.2300000000001 959.04 418.20000000000005 959.03 418.1700000000001 959.02C418.1600000000001 959.02 418.1600000000001 959.01 418.1500000000001 959.01C418.1200000000001 959 418.0800000000001 959 418.05000000000007 959L407.62000000000006 959C407.15000000000003 959 406.76000000000005 959.39 406.76000000000005 959.86L406.76000000000005 966.87L406.2300000000001 966.87C405.55000000000007 966.87 405.00000000000006 967.42 405.00000000000006 968.1L405.00000000000006 974.51C405.00000000000006 975.2 405.55000000000007 975.75 406.2300000000001 975.75L406.76000000000005 975.75L406.76000000000005 980.14C406.76000000000005 980.61 407.15000000000003 981 407.62000000000006 981L421.86000000000007 981C422.3300000000001 981 422.7200000000001 980.61 422.7200000000001 980.14L422.7200000000001 975.75L423.25000000000006 975.75C423.93000000000006 975.75 424.4800000000001 975.2 424.4800000000001 974.51L424.4800000000001 968.1C424.4800000000001 967.4200000000001 423.93000000000006 966.87 423.25000000000006 966.87Z " fill="#4a90e2" fill-opacity="1" transform="matrix(1,0,0,1,-405,-959)"></path></svg>