<svg id="SvgjsSvg1008" xmlns="http://www.w3.org/2000/svg" version="1.1" xmlns:xlink="http://www.w3.org/1999/xlink" xmlns:svgjs="http://svgjs.com/svgjs" width="20" height="22"><defs id="SvgjsDefs1009"></defs><path id="SvgjsPath1010" d="M422.72 922.87C422.72 922.85 422.72 920.29 422.72 920.27C422.72 920.17 422.68 920.0699999999999 422.62 919.99L418.37 915.15C418.37 915.15 418.37 915.15 418.37 915.14C418.34000000000003 915.12 418.32 915.09 418.28000000000003 915.0699999999999C418.27000000000004 915.0699999999999 418.26000000000005 915.06 418.26000000000005 915.06C418.2300000000001 915.04 418.20000000000005 915.03 418.1700000000001 915.02C418.1600000000001 915.02 418.1600000000001 915.01 418.1500000000001 915.01C418.1200000000001 915 418.0800000000001 915 418.05000000000007 915L407.62000000000006 915C407.15000000000003 915 406.76000000000005 915.39 406.76000000000005 915.86L406.76000000000005 922.87L406.2300000000001 922.87C405.55000000000007 922.87 405.00000000000006 923.42 405.00000000000006 924.1L405.00000000000006 930.51C405.00000000000006 931.2 405.55000000000007 931.75 406.2300000000001 931.75L406.76000000000005 931.75L406.76000000000005 936.14C406.76000000000005 936.61 407.15000000000003 937 407.62000000000006 937L421.86000000000007 937C422.3300000000001 937 422.7200000000001 936.61 422.7200000000001 936.14L422.7200000000001 931.75L423.25000000000006 931.75C423.93000000000006 931.75 424.4800000000001 931.2 424.4800000000001 930.51L424.4800000000001 924.1C424.4800000000001 923.4200000000001 423.93000000000006 922.87 423.25000000000006 922.87ZM407.62 915.86L417.62 915.86L417.62 920.28C417.62 920.52 417.81 920.7099999999999 418.05 920.7099999999999L421.86 920.7099999999999L421.86 922.8699999999999L407.62 922.8699999999999ZM407.62 935.9L407.62 931.75L421.86 931.75L421.86 935.9ZM417.14 929.95C416.46999999999997 930.5200000000001 415.43 930.7800000000001 414.16999999999996 930.7800000000001C413.41999999999996 930.7800000000001 412.87999999999994 930.7400000000001 412.52 930.69L412.52 924.36C413.04999999999995 924.28 413.75 924.23 414.49 924.23C415.71000000000004 924.23 416.5 924.45 417.13 924.9200000000001C417.79 925.4100000000001 418.21999999999997 926.21 418.21999999999997 927.34C418.21999999999997 928.58 417.77 929.4300000000001 417.14 929.95ZM406.96 924.36C407.40999999999997 924.29 408.03999999999996 924.23 408.93 924.23C409.83 924.23 410.47 924.4 410.90000000000003 924.74C411.31000000000006 925.07 411.59000000000003 925.6 411.59000000000003 926.23C411.59000000000003 926.87 411.38000000000005 927.4 411.00000000000006 927.76C410.50000000000006 928.23 409.77000000000004 928.4399999999999 408.9100000000001 928.4399999999999C408.7100000000001 928.4399999999999 408.5400000000001 928.43 408.4100000000001 928.41L408.4100000000001 930.7199999999999L406.9600000000001 930.7199999999999ZM423.11 925.47L420.63 925.47L420.63 926.94L422.95 926.94L422.95 928.1300000000001L420.63 928.1300000000001L420.63 930.7200000000001L419.17 930.7200000000001L419.17 924.2800000000001L423.11 924.2800000000001ZM413.98 925.4L413.98 929.62C414.11 929.65 414.31 929.65 414.49 929.65C415.81 929.66 416.67 928.93 416.67 927.39C416.68 926.05 415.89000000000004 925.35 414.64000000000004 925.35C414.32000000000005 925.35 414.11000000000007 925.37 413.98 925.4ZM410.15 926.27C410.15 926.93 409.66999999999996 927.3199999999999 408.9 927.3199999999999C408.69 927.3199999999999 408.53 927.31 408.40999999999997 927.29L408.40999999999997 925.38C408.51 925.36 408.71 925.33 409.01 925.33C409.74 925.33 410.15 925.6800000000001 410.15 926.2700000000001Z " fill="#e2574c" fill-opacity="1" transform="matrix(1,0,0,1,-405,-915)"></path></svg>