<?xml version="1.0" encoding="utf-8"?>
<!-- Generator: Avocode 2.6.0 - http://avocode.com -->
<svg height="18" width="18" xmlns:xlink="http://www.w3.org/1999/xlink" xmlns="http://www.w3.org/2000/svg" viewBox="0 0 18 18">
    <path fill="#c4ccd3" fill-rule="evenodd" d="M 10.29 1.49 C 13.72 1.49 16.51 4.28 16.51 7.71 C 16.51 11.14 13.72 13.93 10.29 13.93 C 6.87 13.93 4.08 11.14 4.08 7.71 C 4.08 4.28 6.87 1.49 10.29 1.49 M 0.74 18 C 0.94 18 1.13 17.92 1.27 17.78 L 5.39 13.66 C 6.77 14.79 8.5 15.41 10.29 15.41 C 14.54 15.41 18 11.96 18 7.71 C 18 3.46 14.54 0 10.29 0 C 6.04 0 2.58 3.46 2.58 7.71 C 2.58 9.5 3.21 11.23 4.34 12.6 L 0.22 16.73 C -0.07 17.02 -0.07 17.49 0.22 17.78 C 0.35 17.92 0.54 18 0.74 18" />
</svg>