<svg id="SvgjsSvg1014" xmlns="http://www.w3.org/2000/svg" version="1.1" xmlns:xlink="http://www.w3.org/1999/xlink" xmlns:svgjs="http://svgjs.com/svgjs" width="20" height="22"><defs id="SvgjsDefs1015"></defs><path id="SvgjsPath1016" d="M407.62 1003.86L417.62 1003.86L417.62 1008.28C417.62 1008.52 417.81 1008.7099999999999 418.05 1008.7099999999999L421.86 1008.7099999999999L421.86 1010.8699999999999L407.62 1010.8699999999999ZM407.62 1023.9L407.62 1019.75L421.86 1019.75L421.86 1023.9ZM408.61 1015.07L406.78000000000003 1011.82L408.49 1011.82L409.06 1013.0200000000001C409.26 1013.4200000000001 409.41 1013.7400000000001 409.56 1014.1100000000001L409.58 1014.1100000000001C409.74 1013.6900000000002 409.87 1013.4000000000001 410.03 1013.0200000000001L410.59 1011.82L412.28999999999996 1011.82L410.42999999999995 1015.0300000000001L412.38999999999993 1018.4000000000001L410.6699999999999 1018.4000000000001L410.0699999999999 1017.21C409.82999999999987 1016.75 409.6699999999999 1016.4100000000001 409.4799999999999 1016.0300000000001L409.4699999999999 1016.0300000000001C409.3299999999999 1016.4100000000001 409.1599999999999 1016.7500000000001 408.9599999999999 1017.21L408.4099999999999 1018.4000000000001L406.7099999999999 1018.4000000000001ZM417.93 1018.1L418.23 1016.87C418.63 1017.07 419.25 1017.28 419.89000000000004 1017.28C420.57000000000005 1017.28 420.93000000000006 1017 420.93000000000006 1016.5699999999999C420.93000000000006 1016.16 420.62000000000006 1015.92 419.83000000000004 1015.64C418.73 1015.26 418.02000000000004 1014.65 418.02000000000004 1013.6899999999999C418.02000000000004 1012.5699999999999 418.96000000000004 1011.7099999999999 420.51000000000005 1011.7099999999999C421.25000000000006 1011.7099999999999 421.80000000000007 1011.8599999999999 422.19000000000005 1012.04L421.86000000000007 1013.24C421.6000000000001 1013.12 421.13000000000005 1012.9300000000001 420.4800000000001 1012.9300000000001C419.8400000000001 1012.9300000000001 419.5200000000001 1013.22 419.5200000000001 1013.57C419.5200000000001 1013.99 419.9000000000001 1014.1700000000001 420.7500000000001 1014.49C421.91000000000014 1014.92 422.4600000000001 1015.53 422.4600000000001 1016.46C422.4600000000001 1017.5600000000001 421.61000000000007 1018.5 419.80000000000007 1018.5C419.05000000000007 1018.5 418.30000000000007 1018.31 417.93000000000006 1018.1ZM417.31 1017.15L417.31 1018.4L413.19 1018.4L413.19 1011.8199999999999L414.69 1011.8199999999999L414.69 1017.15ZM422.72 1010.87C422.72 1010.85 422.72 1008.29 422.72 1008.27C422.72 1008.17 422.69000000000005 1008.0699999999999 422.62 1007.99L418.37 1003.15C418.37 1003.15 418.37 1003.15 418.37 1003.14C418.35 1003.12 418.32 1003.09 418.28000000000003 1003.0699999999999C418.28000000000003 1003.0699999999999 418.27000000000004 1003.06 418.26000000000005 1003.06C418.2300000000001 1003.04 418.20000000000005 1003.03 418.1700000000001 1003.02C418.1600000000001 1003.02 418.1600000000001 1003.01 418.1500000000001 1003.01C418.1200000000001 1003 418.0800000000001 1003 418.05000000000007 1003L407.62000000000006 1003C407.15000000000003 1003 406.76000000000005 1003.39 406.76000000000005 1003.86L406.76000000000005 1010.87L406.2300000000001 1010.87C405.55000000000007 1010.87 405.00000000000006 1011.42 405.00000000000006 1012.1L405.00000000000006 1018.51C405.00000000000006 1019.2 405.55000000000007 1019.75 406.2300000000001 1019.75L406.76000000000005 1019.75L406.76000000000005 1024.14C406.76000000000005 1024.6100000000001 407.15000000000003 1025 407.62000000000006 1025L421.86000000000007 1025C422.3400000000001 1025 422.7200000000001 1024.61 422.7200000000001 1024.14L422.7200000000001 1019.7500000000001L423.25000000000006 1019.7500000000001C423.93000000000006 1019.7500000000001 424.4800000000001 1019.2000000000002 424.4800000000001 1018.5100000000001L424.4800000000001 1012.1000000000001C424.4800000000001 1011.4200000000002 423.93000000000006 1010.8700000000001 423.25000000000006 1010.8700000000001Z " fill="#2eaa92" fill-opacity="1" transform="matrix(1,0,0,1,-405,-1003)"></path></svg>