<?xml version="1.0" encoding="utf-8"?><svg width="184" height="82" viewBox="0 0 184 82" xmlns="http://www.w3.org/2000/svg" xmlns:xlink="http://www.w3.org/1999/xlink"><svg height="82" width="82" viewBox="-1 -1 82 82" id="add-widget"><path fill="#fff" fill-rule="evenodd" d="M77.29 40C77.29 19.44 60.56 2.71 40 2.71S2.71 19.44 2.71 40 19.44 77.29 40 77.29 77.29 60.56 77.29 40M80 40c0 22.06-17.94 40-40 40S0 62.06 0 40C0 17.95 17.94 0 40 0s40 17.94 40 40m-21.8 0c0 .75-.6 1.36-1.35 1.36H41.36v15.48c0 .75-.61 1.36-1.36 1.36-.75 0-1.35-.61-1.35-1.36V41.36H23.16c-.75 0-1.36-.61-1.36-1.36 0-.75.61-1.36 1.36-1.36h15.49V23.16c0-.75.6-1.36 1.35-1.36.75 0 1.36.61 1.36 1.36v15.48h15.49c.74 0 1.35.61 1.35 1.36"/></svg><svg width="16" height="16" viewBox="-1 -1 16 16" id="bookmark" x="82"><path d="M5.03 11.6c-.72.72-1.9.72-2.63 0-.72-.73-.72-1.9 0-2.63l2.63-2.63c.72-.72 1.9-.72 2.63 0 .22.23.37.5.46.79.06-.04.14-.07.19-.13l1.22-1.22c-.15-.27-.33-.52-.56-.75a3.712 3.712 0 0 0-5.25 0L1.09 7.66a3.712 3.712 0 1 0 5.25 5.25l1.99-1.99c-.79.12-1.61.04-2.37-.26zm5.25-2.63a3.712 3.712 0 0 1-5.25 0c-.23-.23-.41-.48-.56-.75L5.69 7c.05-.06.13-.09.19-.13.09.29.24.56.46.79.73.72 1.91.72 2.63 0l2.63-2.63c.72-.73.72-1.9 0-2.63-.73-.72-1.9-.72-2.63 0l-.93.94c-.76-.3-1.58-.38-2.37-.26l1.99-1.99a3.712 3.712 0 1 1 5.25 5.25z" fill="#4a90e2"/></svg><svg width="22" height="24" viewBox="-1 -1 22 24" id="doc" x="98"><path d="M2.62.86h10v4.42c0 .24.19.43.43.43h3.81v2.16H2.62zm0 15.89h14.24v4.15H2.62zm7.42-1.64c-1.78 0-2.82-1.34-2.82-3.05 0-1.79 1.15-3.13 2.92-3.13 1.83 0 2.84 1.38 2.84 3.03 0 1.96-1.19 3.15-2.94 3.15zm-8.72-6c.5-.08 1.15-.13 1.83-.13 1.14 0 1.87.21 2.45.64.62.47 1.01 1.2 1.01 2.26 0 1.14-.41 1.93-.99 2.42-.63.52-1.59.77-2.76.77-.7 0-1.2-.04-1.54-.09zm16.73 4.68l.21 1.05c-.25.13-.81.26-1.54.26-2.07 0-3.13-1.29-3.13-2.99 0-2.04 1.45-3.18 3.26-3.18.7 0 1.24.14 1.48.27l-.28 1.07c-.27-.11-.65-.22-1.13-.22-1.08 0-1.91.65-1.91 1.98 0 1.2.71 1.95 1.91 1.95.41 0 .87-.09 1.13-.19zm-7.94.24c.91 0 1.44-.87 1.44-2.03 0-1.07-.52-1.99-1.45-1.99-.91 0-1.45.87-1.45 2.03 0 1.17.55 1.99 1.46 1.99zm-6.82-4.01c-.3 0-.49.03-.61.06v3.91c.12.03.3.03.47.03 1.23.01 2.02-.67 2.02-2.1.01-1.24-.71-1.9-1.88-1.9zm14.43-2.15v-2.6c0-.1-.04-.2-.1-.28L13.37.15V.14a.351.351 0 0 0-.09-.07c-.01 0-.01-.01-.02-.01-.03-.02-.06-.03-.09-.04-.01 0-.01-.01-.02-.01-.03-.01-.07-.01-.1-.01H2.62c-.47 0-.86.39-.86.86v7.01h-.53C.55 7.87 0 8.42 0 9.1v6.41c0 .69.55 1.24 1.23 1.24h.53v4.39c0 .47.39.86.86.86h14.24c.47 0 .86-.39.86-.86v-4.39h.53c.68 0 1.23-.55 1.23-1.24V9.1c0-.68-.55-1.23-1.23-1.23z" fill="#4a90e2"/></svg><svg width="22" height="24" viewBox="-1 -1 22 24" id="pdf" x="120"><path d="M17.72 7.87v-2.6c0-.1-.04-.2-.1-.28L13.37.15V.14c-.03-.02-.05-.05-.09-.07-.01 0-.02-.01-.02-.01-.03-.02-.06-.03-.09-.04-.01 0-.01-.01-.02-.01-.03-.01-.07-.01-.1-.01H2.62c-.47 0-.86.39-.86.86v7.01h-.53C.55 7.87 0 8.42 0 9.1v6.41c0 .69.55 1.24 1.23 1.24h.53v4.39c0 .47.39.86.86.86h14.24c.47 0 .86-.39.86-.86v-4.39h.53c.68 0 1.23-.55 1.23-1.24V9.1c0-.68-.55-1.23-1.23-1.23zM2.62.86h10v4.42c0 .24.19.43.43.43h3.81v2.16H2.62zm0 20.04v-4.15h14.24v4.15zm9.52-5.95c-.67.57-1.71.83-2.97.83-.75 0-1.29-.04-1.65-.09V9.36c.53-.08 1.23-.13 1.97-.13 1.22 0 2.01.22 2.64.69.66.49 1.09 1.29 1.09 2.42 0 1.24-.45 2.09-1.08 2.61zM1.96 9.36c.45-.07 1.08-.13 1.97-.13.9 0 1.54.17 1.97.51.41.33.69.86.69 1.49 0 .64-.21 1.17-.59 1.53-.5.47-1.23.68-2.09.68-.2 0-.37-.01-.5-.03v2.31H1.96zm16.15 1.11h-2.48v1.47h2.32v1.19h-2.32v2.59h-1.46V9.28h3.94zm-9.13-.07v4.22c.13.03.33.03.51.03 1.32.01 2.18-.72 2.18-2.26.01-1.34-.78-2.04-2.03-2.04-.32 0-.53.02-.66.05zm-3.83.87c0 .66-.48 1.05-1.25 1.05-.21 0-.37-.01-.49-.03v-1.91c.1-.02.3-.05.6-.05.73 0 1.14.35 1.14.94z" fill="#e2574c"/></svg><svg height="20" width="20" viewBox="-1 -1 20 20" id="search" x="142"><path fill="#c4ccd3" fill-rule="evenodd" d="M10.29 1.49c3.43 0 6.22 2.79 6.22 6.22 0 3.43-2.79 6.22-6.22 6.22-3.42 0-6.21-2.79-6.21-6.22 0-3.43 2.79-6.22 6.21-6.22M.74 18c.2 0 .39-.08.53-.22l4.12-4.12a7.733 7.733 0 0 0 4.9 1.75c4.25 0 7.71-3.45 7.71-7.7S14.54 0 10.29 0 2.58 3.46 2.58 7.71c0 1.79.63 3.52 1.76 4.89L.22 16.73c-.29.29-.29.76 0 1.05.13.14.32.22.52.22"/></svg><svg width="22" height="24" viewBox="-1 -1 22 24" id="xls" x="162"><path d="M2.62.86h10v4.42c0 .24.19.43.43.43h3.81v2.16H2.62zm0 20.04v-4.15h14.24v4.15zm.99-8.83L1.78 8.82h1.71l.57 1.2c.2.4.35.72.5 1.09h.02c.16-.42.29-.71.45-1.09l.56-1.2h1.7l-1.86 3.21 1.96 3.37H5.67l-.6-1.19c-.24-.46-.4-.8-.59-1.18h-.01c-.14.38-.31.72-.51 1.18l-.55 1.19h-1.7zm9.32 3.03l.3-1.23c.4.2 1.02.41 1.66.41.68 0 1.04-.28 1.04-.71 0-.41-.31-.65-1.1-.93-1.1-.38-1.81-.99-1.81-1.95 0-1.12.94-1.98 2.49-1.98.74 0 1.29.15 1.68.33l-.33 1.2c-.26-.12-.73-.31-1.38-.31-.64 0-.96.29-.96.64 0 .42.38.6 1.23.92 1.16.43 1.71 1.04 1.71 1.97 0 1.1-.85 2.04-2.66 2.04-.75 0-1.5-.19-1.87-.4zm-.62-.95v1.25H8.19V8.82h1.5v5.33zm5.41-6.28v-2.6c0-.1-.03-.2-.1-.28L13.37.15V.14a.351.351 0 0 0-.09-.07s-.01-.01-.02-.01c-.03-.02-.06-.03-.09-.04-.01 0-.01-.01-.02-.01-.03-.01-.07-.01-.1-.01H2.62c-.47 0-.86.39-.86.86v7.01h-.53C.55 7.87 0 8.42 0 9.1v6.41c0 .69.55 1.24 1.23 1.24h.53v4.39c0 .47.39.86.86.86h14.24c.48 0 .86-.39.86-.86v-4.39h.53c.68 0 1.23-.55 1.23-1.24V9.1c0-.68-.55-1.23-1.23-1.23z" fill="#2eaa92"/></svg></svg>